<svg width="40" height="40" viewBox="0 0 40 40" fill="none" xmlns="http://www.w3.org/2000/svg">
<path d="M0 20C0 8.9543 8.95431 0 20 0C31.0457 0 40 8.9543 40 20C40 31.0457 31.0457 40 20 40C8.95431 40 0 31.0457 0 20Z" fill="#1B1F2F"/>
<path d="M22.6613 12.9032C21.9174 12.9464 21.0634 13.3608 20.5557 13.8886C20.097 14.3686 19.7351 15.0815 19.8828 15.7711C20.6912 15.7924 21.5026 15.3673 21.9884 14.8299C22.4419 14.3273 22.7858 13.6258 22.6613 12.9032ZM22.7054 15.7699C21.5383 15.7699 21.0503 16.4869 20.2419 16.4869C19.4103 16.4869 18.6501 15.8152 17.6436 15.8152C16.2746 15.8159 14.1935 17.0841 14.1935 20.0718C14.1935 22.7899 16.6565 25.8064 18.0469 25.8064C18.8914 25.8148 19.0961 25.2754 20.2419 25.2696C21.389 25.2612 21.6365 25.8135 22.4824 25.8064C23.4346 25.7993 24.1783 24.7529 24.7215 23.9239C25.1112 23.3303 25.2714 23.0273 25.5733 22.3563C23.3327 21.7886 22.8869 18.1752 25.5733 17.4281C25.0662 16.563 23.586 15.7699 22.7054 15.7699Z" fill="white"/>
</svg>
