<svg width="40" height="40" viewBox="0 0 40 40" fill="none" xmlns="http://www.w3.org/2000/svg">
<path d="M0 20C0 8.9543 8.95431 0 20 0C31.0457 0 40 8.9543 40 20C40 31.0457 31.0457 40 20 40C8.95431 40 0 31.0457 0 20Z" fill="#395998"/>
<path d="M20.6871 25.8046V20.5169H22.471L22.7362 18.4466H20.6871V17.1278C20.6871 16.5304 20.8536 16.1214 21.711 16.1214H22.7975V14.2756C22.2688 14.2189 21.7375 14.1916 21.2058 14.1937C19.6291 14.1937 18.5465 15.1562 18.5465 16.9233V18.4427H16.7742V20.513H18.5504V25.8046H20.6871Z" fill="white"/>
</svg>
