<svg width="24" height="24" viewBox="0 0 24 24" fill="none" xmlns="http://www.w3.org/2000/svg">
<path d="M13.4602 3.41456L13.4617 3.41579L20.3897 8.95414C20.3899 8.95438 20.3902 8.95462 20.3905 8.95486C20.6466 9.16139 20.8963 9.52037 21.063 9.95731C21.2296 10.394 21.2832 10.8298 21.23 11.1578C21.23 11.1582 21.2299 11.1587 21.2298 11.1591L19.9007 19.1141C19.9006 19.1145 19.9005 19.1149 19.9005 19.1152C19.7211 20.1655 18.6627 21.06 17.6 21.06H6.40002C5.32641 21.06 4.27895 20.1746 4.09963 19.1155C4.0996 19.1154 4.09956 19.1152 4.09953 19.115L2.76977 11.1564L2.76978 11.1564L2.76899 11.1518C2.71253 10.8263 2.76341 10.3927 2.92951 9.95731C3.09556 9.52206 3.34683 9.16366 3.6067 8.95709L3.60671 8.95709L3.60885 8.95538L10.5389 3.40538L10.5392 3.40508C11.3236 2.77611 12.6631 2.77393 13.4602 3.41456ZM8.75002 13C8.75002 14.7942 10.2058 16.25 12 16.25C13.7942 16.25 15.25 14.7942 15.25 13C15.25 11.2058 13.7942 9.74997 12 9.74997C10.2058 9.74997 8.75002 11.2058 8.75002 13Z" fill="#5C3D99" stroke="#5C3D99" stroke-width="1.5"/>
</svg>
